<svg version="1.1" id="Layer_1" xmlns="http://www.w3.org/2000/svg" x="0" y="0" viewBox="0 0 860.9 161.8" xml:space="preserve"><path d="M.6 159.8h22V93.7H75V73.1H22.7V21.8h77.4V1.2H.6v158.6zm178.4-.3h29l-61.7-68.3 2.1-.8c21.3-7.6 34.6-26 33.1-45.7-1.8-24.4-25.5-43.5-54-43.5H116v20.6h11.5c17.6 0 31.9 11.5 31.9 25.6S145.2 73 127.6 73l-36.5.1v70.3h22V93.9h6.7l.4.5 58.8 65.1zm31-50.8V70.5h26.9v5.3h-21.1V88h19.5v5.3h-19.5v15.5H210zm58.3-9.6h-18.7l-4 9.6h-5.8l16.8-38.3h5.1l16.7 38.3h-5.9l-4.2-9.6zm-16.5-5.3H266L258.9 77l-7.1 16.8zm57.1 4.4c0-2.8-1.9-4.6-6.7-5.7l-4.9-1.1c-7.4-1.6-11.1-5-11.1-10.8 0-6.7 5.1-10.7 13.5-10.7 8.1 0 13 3.8 13.7 9.9h-5.6c-.5-3.1-3.5-4.8-8.1-4.8-4.8 0-7.8 1.8-7.8 5.5 0 3.2 2.5 4.8 7.5 5.9l4.9 1.1c7.3 1.6 10.2 4.9 10.2 10.4 0 7.5-6 11.3-14.2 11.3-8.6 0-14.4-3.8-15-10.6h5.6c.5 3.6 3.9 5.5 9.4 5.5 5.2 0 8.6-2.1 8.6-5.9zm45-22.4h-12.4v32.9h-5.7V75.8h-12.4v-5.3H354v5.3zm17.3 32.9h-5.8V70.5h5.8v38.2zm45.5-16H404v-5h18.5c.2 1.1.2 1.9.2 2.7 0 11.8-8.4 18.9-18.9 18.9-11.4 0-19.8-8.7-19.8-19.7s8.6-19.7 19.9-19.7c9 0 16.2 5.4 17.9 13h-6.1c-1.3-4.3-5.5-7.6-11.7-7.6-8.1 0-14 6.1-14 14.3 0 8.3 5.7 14.3 13.9 14.3 7.4 0 12.5-4.8 12.8-11.2zm44.5-6V70.5h5.7v38.2h-5.7V92.2h-20.9v16.5h-5.7V70.5h5.7v16.3h20.9zm19.1 22V70.5h27.2v5.2H486v11.1h20.1V92H486v11.4h21.7v5.2h-27.4zm69.2-32.9H537v32.9h-5.7V75.8h-12.4v-5.3h30.6v5.3zm31.4 22.4c0-2.8-1.9-4.6-6.7-5.7l-4.9-1.1c-7.4-1.6-11.1-5-11.1-10.8 0-6.7 5.1-10.7 13.5-10.7 8.1 0 13 3.8 13.7 9.9h-5.6c-.5-3.1-3.5-4.8-8.1-4.8-4.8 0-7.8 1.8-7.8 5.5 0 3.2 2.5 4.8 7.5 5.9l4.9 1.1c7.3 1.6 10.2 4.9 10.2 10.4 0 7.5-6 11.3-14.2 11.3-8.6 0-14.4-3.8-15-10.6h5.6c.5 3.6 3.9 5.5 9.4 5.5 5.2 0 8.6-2.1 8.6-5.9zm39.8 0c0-2.8-1.9-4.6-6.7-5.7l-4.9-1.1c-7.4-1.6-11.1-5-11.1-10.8 0-6.7 5.1-10.7 13.5-10.7 8.1 0 13 3.8 13.7 9.9h-5.6c-.5-3.1-3.5-4.8-8.1-4.8-4.8 0-7.8 1.8-7.8 5.5 0 3.2 2.5 4.8 7.5 5.9l4.9 1.1c7.3 1.6 10.2 4.9 10.2 10.4 0 7.5-6 11.3-14.2 11.3-8.6 0-14.4-3.8-15-10.6h5.6c.5 3.6 3.9 5.5 9.4 5.5 5.2 0 8.6-2.1 8.6-5.9zm17.2 10.5V70.5h27.2v5.2h-21.5v11.1h20.1V92h-20.1v11.4h21.7v5.2h-27.4zm45.6 0h-5.7V70.5h17c9 0 13.9 4.9 13.9 12.2 0 6.3-3.9 10.9-10.6 12.1l10.9 14h-6.6L691.6 95h-8.2v13.7zM694 89.9c5.7 0 8.7-2.5 8.7-7.1s-2.9-7-8.7-7h-10.5v14.1H694zm41.5 11.5l12.6-30.9h6.1l-16 38.3h-5.6l-16-38.3h6.3l12.6 30.9zm35.1 7.3h-5.8V70.5h5.8v38.2zm32.5-38.8c9.4 0 16.9 5.6 18.3 13.8h-6c-1.2-4.7-5.6-8.3-12.3-8.3-8.2 0-14.1 6-14.1 14.2 0 8.3 5.9 14.2 14.1 14.2 6.7 0 11.1-3.6 12.3-8.4h6c-1.5 8.2-9 13.8-18.4 13.8-11.4 0-20-8.7-20-19.7.1-10.9 8.7-19.6 20.1-19.6zm29.3 38.8V70.5h27.2v5.2h-21.5v11.1h20.1V92h-20.1v11.4h21.7v5.2h-27.4z" fill="#fff"/></svg>